<svg width="12" height="12" viewBox="0 0 12 12" fill="none" xmlns="http://www.w3.org/2000/svg">
<path d="M7.24983 5.99919V11.2518C7.27482 11.4518 7.21233 11.6651 7.0686 11.8051C7.01079 11.8669 6.94212 11.9159 6.86652 11.9493C6.79092 11.9828 6.70988 12 6.62804 12C6.54619 12 6.46515 11.9828 6.38956 11.9493C6.31396 11.9159 6.24529 11.8669 6.18747 11.8051L4.9314 10.4652C4.86328 10.3941 4.81148 10.3072 4.78005 10.2113C4.74861 10.1153 4.73839 10.0129 4.75017 9.91199V5.99919H4.73143L1.13192 1.07985C1.03044 0.940892 0.984653 0.764735 1.00456 0.589873C1.02447 0.415012 1.10845 0.255663 1.23816 0.146647C1.35689 0.0533261 1.48812 0 1.62561 0H10.3744C10.5119 0 10.6431 0.0533261 10.7618 0.146647C10.8916 0.255663 10.9755 0.415012 10.9954 0.589873C11.0153 0.764735 10.9696 0.940892 10.8681 1.07985L7.26857 5.99919H7.24983Z" fill="#797979"/>
</svg>
