<svg width="12" height="12" viewBox="0 0 12 12" fill="none" xmlns="http://www.w3.org/2000/svg">
<path fill-rule="evenodd" clip-rule="evenodd" d="M3.95961 1.0812C5.19956 0.3606 5.81922 0 6.5 0C7.18078 0 7.80044 0.36 9.04039 1.0812L9.45961 1.3248C10.6996 2.046 11.3192 2.4066 11.6596 3C12 3.594 12 4.314 12 5.7564V6.2436C12 7.6854 12 8.4066 11.6596 9C11.3192 9.5934 10.6996 9.954 9.45961 10.6746L9.04039 10.9188C7.80044 11.6394 7.18078 12 6.5 12C5.81922 12 5.19956 11.64 3.95961 10.9188L3.54039 10.6746C2.30044 9.9546 1.68078 9.5934 1.34039 9C1 8.406 1 7.686 1 6.2436V5.7564C1 4.314 1 3.5934 1.34039 3C1.68078 2.4066 2.30044 2.046 3.54039 1.3248L3.95961 1.0812ZM7.11111 8.4C7.11111 8.55913 7.04673 8.71174 6.93212 8.82426C6.81751 8.93679 6.66208 9 6.5 9C6.33792 9 6.18248 8.93679 6.06788 8.82426C5.95327 8.71174 5.88889 8.55913 5.88889 8.4C5.88889 8.24087 5.95327 8.08826 6.06788 7.97574C6.18248 7.86321 6.33792 7.8 6.5 7.8C6.66208 7.8 6.81751 7.86321 6.93212 7.97574C7.04673 8.08826 7.11111 8.24087 7.11111 8.4ZM6.5 2.55C6.62156 2.55 6.73814 2.59741 6.82409 2.6818C6.91004 2.76619 6.95833 2.88065 6.95833 3V6.6C6.95833 6.71935 6.91004 6.83381 6.82409 6.9182C6.73814 7.00259 6.62156 7.05 6.5 7.05C6.37844 7.05 6.26186 7.00259 6.17591 6.9182C6.08996 6.83381 6.04167 6.71935 6.04167 6.6V3C6.04167 2.88065 6.08996 2.76619 6.17591 2.6818C6.26186 2.59741 6.37844 2.55 6.5 2.55Z" fill="#832108"/>
</svg>
